<svg width="12" height="12" viewBox="0 0 12 12" fill="none" xmlns="http://www.w3.org/2000/svg">
<path d="M8.095 1H3.905C2.085 1 1 2.085 1 3.905V8.09C1 9.915 2.085 11 3.905 11H8.09C9.91 11 10.995 9.915 10.995 8.095V3.905C11 2.085 9.915 1 8.095 1ZM5.495 8.5C5.495 8.55 5.485 8.595 5.465 8.645C5.425 8.735 5.355 8.81 5.26 8.85C5.215 8.87 5.165 8.88 5.115 8.88C5.065 8.88 5.02 8.87 4.97 8.85C4.925 8.83 4.885 8.805 4.85 8.77L3.375 7.295C3.23 7.15 3.23 6.91 3.375 6.765C3.52 6.62 3.76 6.62 3.905 6.765L4.74 7.6V3.5C4.74 3.295 4.91 3.125 5.115 3.125C5.32 3.125 5.495 3.295 5.495 3.5V8.5ZM8.62 5.24C8.545 5.315 8.45 5.35 8.355 5.35C8.26 5.35 8.165 5.315 8.09 5.24L7.255 4.405V8.5C7.255 8.705 7.085 8.875 6.88 8.875C6.675 8.875 6.505 8.705 6.505 8.5V3.5C6.505 3.45 6.515 3.405 6.535 3.355C6.575 3.265 6.645 3.19 6.74 3.15C6.83 3.11 6.935 3.11 7.025 3.15C7.07 3.17 7.11 3.195 7.145 3.23L8.62 4.705C8.765 4.855 8.765 5.095 8.62 5.24Z" fill="url(#paint0_linear_1318_305)"/>
<defs>
<linearGradient id="paint0_linear_1318_305" x1="1.13327" y1="1.15345" x2="10.5808" y2="11.1855" gradientUnits="userSpaceOnUse">
<stop stop-color="#068CD5"/>
<stop offset="1" stop-color="#4500D8"/>
</linearGradient>
</defs>
</svg>
