<svg width="32" height="32" viewBox="0 0 32 32" fill="none" xmlns="http://www.w3.org/2000/svg">
<path d="M9.6 2.66669H13.0667C17.3333 2.66669 20 5.33335 20 9.60002V15H14.08L16.84 12.24C17.04 12.04 17.1333 11.7867 17.1333 11.5334C17.1333 11.28 17.04 11.0267 16.84 10.8267C16.4533 10.44 15.8133 10.44 15.4267 10.8267L10.96 15.2934C10.5733 15.68 10.5733 16.32 10.96 16.7067L15.4267 21.1734C15.8133 21.56 16.4533 21.56 16.84 21.1734C17.2267 20.7867 17.2267 20.1467 16.84 19.76L14.08 17H20V22.4C20 26.6667 17.3333 29.3334 13.0667 29.3334H9.61333C5.34667 29.3334 2.68 26.6667 2.68 22.4V9.60002C2.66667 5.33335 5.33333 2.66669 9.6 2.66669Z" fill="#0F002F"/>
<path d="M28.3335 15C28.8802 15 29.3335 15.4533 29.3335 16C29.3335 16.5467 28.8802 17 28.3335 17H20.0002V15H28.3335Z" fill="#0F002F"/>
</svg>
