<svg width="44" height="44" viewBox="0 0 44 44" fill="none" xmlns="http://www.w3.org/2000/svg">
<rect width="44" height="44" rx="10" fill="#4285F4" fill-opacity="0.1"/>
<path d="M32 29V32H12V29C12 28.45 12.45 28 13 28H31C31.55 28 32 28.45 32 29Z" fill="black" stroke="black" stroke-width="1.5" stroke-miterlimit="10" stroke-linecap="round" stroke-linejoin="round"/>
<path d="M17 21H15V28H17V21Z" fill="black"/>
<path d="M21 21H19V28H21V21Z" fill="black"/>
<path d="M25 21H23V28H25V21Z" fill="black"/>
<path d="M29 21H27V28H29V21Z" fill="black"/>
<path d="M33 32.75H11C10.59 32.75 10.25 32.41 10.25 32C10.25 31.59 10.59 31.25 11 31.25H33C33.41 31.25 33.75 31.59 33.75 32C33.75 32.41 33.41 32.75 33 32.75Z" fill="black"/>
<path d="M31.37 15.7501L22.37 12.1501C22.17 12.0701 21.83 12.0701 21.63 12.1501L12.63 15.7501C12.28 15.8901 12 16.3001 12 16.6801V20.0001C12 20.5501 12.45 21.0001 13 21.0001H31C31.55 21.0001 32 20.5501 32 20.0001V16.6801C32 16.3001 31.72 15.8901 31.37 15.7501ZM22 18.5001C21.17 18.5001 20.5 17.8301 20.5 17.0001C20.5 16.1701 21.17 15.5001 22 15.5001C22.83 15.5001 23.5 16.1701 23.5 17.0001C23.5 17.8301 22.83 18.5001 22 18.5001Z" fill="black"/>
</svg>
