<svg width="48" height="48" viewBox="0 0 48 48" fill="none" xmlns="http://www.w3.org/2000/svg">
<path d="M44 15.0998C44 16.4198 42.92 17.4998 41.6 17.4998H6.4C5.08 17.4998 4 16.4198 4 15.0998V15.0798C4 10.4998 7.7 6.7998 12.28 6.7998H35.7C40.28 6.7998 44 10.5198 44 15.0998Z" fill="url(#paint0_linear_1877_382)"/>
<path d="M4 22.9V32.92C4 37.5 7.7 41.2 12.28 41.2H35.7C40.28 41.2 44 37.48 44 32.9V22.9C44 21.58 42.92 20.5 41.6 20.5H6.4C5.08 20.5 4 21.58 4 22.9ZM16 34.5H12C11.18 34.5 10.5 33.82 10.5 33C10.5 32.18 11.18 31.5 12 31.5H16C16.82 31.5 17.5 32.18 17.5 33C17.5 33.82 16.82 34.5 16 34.5ZM29 34.5H21C20.18 34.5 19.5 33.82 19.5 33C19.5 32.18 20.18 31.5 21 31.5H29C29.82 31.5 30.5 32.18 30.5 33C30.5 33.82 29.82 34.5 29 34.5Z" fill="url(#paint1_linear_1877_382)"/>
<defs>
<linearGradient id="paint0_linear_1877_382" x1="4.53333" y1="6.964" x2="9.3291" y2="26.0107" gradientUnits="userSpaceOnUse">
<stop stop-color="#068CD5"/>
<stop offset="1" stop-color="#4500D8"/>
</linearGradient>
<linearGradient id="paint1_linear_1877_382" x1="4.53333" y1="20.8176" x2="19.9596" y2="52.4867" gradientUnits="userSpaceOnUse">
<stop stop-color="#068CD5"/>
<stop offset="1" stop-color="#4500D8"/>
</linearGradient>
</defs>
</svg>
