<svg width="22" height="22" viewBox="0 0 22 22" fill="none" xmlns="http://www.w3.org/2000/svg">
<rect width="22" height="22" rx="11" fill="url(#paint0_linear_2291_1450)"/>
<path d="M11.942 10.176C12.6047 10.372 13.1413 10.7173 13.552 11.212C13.972 11.6973 14.182 12.2853 14.182 12.976C14.182 13.984 13.8413 14.7727 13.16 15.342C12.488 15.9113 11.662 16.196 10.682 16.196C9.91667 16.196 9.23067 16.0233 8.624 15.678C8.02667 15.3233 7.59267 14.8053 7.322 14.124L8.974 13.172C9.21667 13.928 9.786 14.306 10.682 14.306C11.1767 14.306 11.5593 14.1893 11.83 13.956C12.11 13.7133 12.25 13.3867 12.25 12.976C12.25 12.5747 12.11 12.2527 11.83 12.01C11.5593 11.7673 11.1767 11.646 10.682 11.646H10.262L9.52 10.526L11.452 8.006H7.616V6.2H13.776V7.796L11.942 10.176Z" fill="white"/>
<defs>
<linearGradient id="paint0_linear_2291_1450" x1="0.293333" y1="0.337596" x2="21.0773" y2="22.4184" gradientUnits="userSpaceOnUse">
<stop stop-color="#3DCD30"/>
<stop offset="1" stop-color="#0F9403"/>
</linearGradient>
</defs>
</svg>
