<svg width="20" height="21" viewBox="0 0 20 21" fill="none" xmlns="http://www.w3.org/2000/svg">
<g clip-path="url(#clip0_2312_1367)">
<path d="M14.1971 0.0195312H5.8129C2.17108 0.0195312 0 2.19061 0 5.83243V14.2066C0 17.8584 2.17108 20.0295 5.8129 20.0295H14.1871C17.8289 20.0295 20 17.8584 20 14.2166V5.83243C20.01 2.19061 17.8389 0.0195312 14.1971 0.0195312ZM13.3667 12.3257C13.6568 12.6158 13.6568 13.096 13.3667 13.3862C13.2166 13.5363 13.0265 13.6063 12.8364 13.6063C12.6463 13.6063 12.4562 13.5363 12.3061 13.3862L10.005 11.085L7.70384 13.3862C7.55376 13.5363 7.36367 13.6063 7.17357 13.6063C6.98348 13.6063 6.79339 13.5363 6.64331 13.3862C6.35317 13.096 6.35317 12.6158 6.64331 12.3257L8.94446 10.0245L6.64331 7.72337C6.35317 7.43323 6.35317 6.95299 6.64331 6.66284C6.93345 6.3727 7.41369 6.3727 7.70384 6.66284L10.005 8.96399L12.3061 6.66284C12.5963 6.3727 13.0765 6.3727 13.3667 6.66284C13.6568 6.95299 13.6568 7.43323 13.3667 7.72337L11.0655 10.0245L13.3667 12.3257Z" fill="#FF3627"/>
</g>
<defs>
<clipPath id="clip0_2312_1367">
<rect y="0.0195312" width="20" height="20.01" rx="10" fill="white"/>
</clipPath>
</defs>
</svg>
