<svg width="20" height="21" viewBox="0 0 20 21" fill="none" xmlns="http://www.w3.org/2000/svg">
<g clip-path="url(#clip0_2312_1355)">
<path d="M14.1971 0.0302734H5.8129C2.17108 0.0302734 0 2.20136 0 5.84317V14.2173C0 17.8692 2.17108 20.0402 5.8129 20.0402H14.1871C17.8289 20.0402 20 17.8692 20 14.2274V5.84317C20.01 2.20136 17.8389 0.0302734 14.1971 0.0302734ZM14.7874 7.73411L9.11454 13.4069C8.97447 13.547 8.78438 13.6271 8.58428 13.6271C8.38418 13.6271 8.19408 13.547 8.05401 13.4069L5.2226 10.5755C4.93246 10.2854 4.93246 9.80515 5.2226 9.515C5.51275 9.22486 5.99299 9.22486 6.28313 9.515L8.58428 11.8161L13.7268 6.67358C14.017 6.38344 14.4972 6.38344 14.7874 6.67358C15.0775 6.96373 15.0775 7.43396 14.7874 7.73411Z" fill="url(#paint0_linear_2312_1355)"/>
</g>
<defs>
<linearGradient id="paint0_linear_2312_1355" x1="0.266667" y1="0.337332" x2="19.1712" y2="20.4114" gradientUnits="userSpaceOnUse">
<stop stop-color="#3DCD30"/>
<stop offset="1" stop-color="#0F9403"/>
</linearGradient>
<clipPath id="clip0_2312_1355">
<rect y="0.0302734" width="20" height="20.01" rx="10" fill="white"/>
</clipPath>
</defs>
</svg>
