<svg width="22" height="22" viewBox="0 0 22 22" fill="none" xmlns="http://www.w3.org/2000/svg">
<rect width="22" height="22" rx="11" fill="url(#paint0_linear_2291_1448)"/>
<path d="M7.378 16V14.558L10.724 11.114C11.4707 10.33 11.844 9.67667 11.844 9.154C11.844 8.77133 11.7227 8.46333 11.48 8.23C11.2467 7.99667 10.9433 7.88 10.57 7.88C9.83267 7.88 9.28667 8.26267 8.932 9.028L7.308 8.076C7.616 7.404 8.05933 6.89067 8.638 6.536C9.21667 6.18133 9.85133 6.004 10.542 6.004C11.4287 6.004 12.1893 6.284 12.824 6.844C13.4587 7.39467 13.776 8.14133 13.776 9.084C13.776 10.1013 13.2393 11.1467 12.166 12.22L10.248 14.138H13.93V16H7.378Z" fill="white"/>
<defs>
<linearGradient id="paint0_linear_2291_1448" x1="0.293333" y1="0.337596" x2="21.0773" y2="22.4184" gradientUnits="userSpaceOnUse">
<stop stop-color="#3DCD30"/>
<stop offset="1" stop-color="#0F9403"/>
</linearGradient>
</defs>
</svg>
