<svg width="11" height="13" viewBox="0 0 11 13" fill="none" xmlns="http://www.w3.org/2000/svg">
<path d="M9.14279 1.78571H7.63593C7.6348 1.44522 7.4991 1.11898 7.25841 0.878126C7.01772 0.637277 6.69157 0.501356 6.35107 0.5H4.64279C4.3019 0.50034 3.97507 0.635908 3.73403 0.876953C3.49298 1.118 3.35741 1.44483 3.35707 1.78571H1.85707C1.57291 1.78571 1.30039 1.8986 1.09946 2.09953C0.898527 2.30046 0.785645 2.57298 0.785645 2.85714C0.785645 3.1413 0.898527 3.41383 1.09946 3.61476C1.30039 3.81569 1.57291 3.92857 1.85707 3.92857H9.14279C9.42695 3.92857 9.69947 3.81569 9.9004 3.61476C10.1013 3.41383 10.2142 3.1413 10.2142 2.85714C10.2142 2.57298 10.1013 2.30046 9.9004 2.09953C9.69947 1.8986 9.42695 1.78571 9.14279 1.78571ZM4.64279 1.35714H6.35107C6.46456 1.35771 6.57325 1.40304 6.6535 1.48329C6.73375 1.56354 6.77908 1.67222 6.77964 1.78571H4.21422C4.21433 1.67208 4.25952 1.56314 4.33987 1.48279C4.42021 1.40245 4.52916 1.35726 4.64279 1.35714ZM9.14279 4.78571C8.92593 4.76986 1.91922 4.81614 1.70536 4.77029L2.02936 11.2816C2.04649 11.6104 2.18919 11.9202 2.42803 12.1469C2.66687 12.3736 2.98362 12.5 3.31293 12.5H7.6865C8.01599 12.5 8.33291 12.3735 8.57184 12.1466C8.81077 11.9197 8.95348 11.6098 8.9705 11.2807L9.2945 4.77071C9.24307 4.77457 9.19464 4.78571 9.14279 4.78571ZM7.08864 8.76843C7.16671 8.84926 7.20991 8.95752 7.20893 9.06989C7.20796 9.18226 7.16288 9.28975 7.08342 9.36921C7.00396 9.44867 6.89647 9.49374 6.7841 9.49472C6.67173 9.49569 6.56347 9.4525 6.48264 9.37443L5.49993 8.39171L4.51722 9.37443C4.43639 9.4525 4.32813 9.49569 4.21576 9.49472C4.10339 9.49374 3.9959 9.44867 3.91644 9.36921C3.83698 9.28975 3.7919 9.18226 3.79093 9.06989C3.78995 8.95752 3.83315 8.84926 3.91122 8.76843L4.89393 7.78571L3.91122 6.803C3.51264 6.416 4.12979 5.798 4.51722 6.197L5.49993 7.17971L6.48264 6.197C6.56347 6.11893 6.67173 6.07573 6.7841 6.07671C6.89647 6.07769 7.00396 6.12276 7.08342 6.20222C7.16288 6.28168 7.20796 6.38917 7.20893 6.50154C7.20991 6.61391 7.16671 6.72217 7.08864 6.803L6.10593 7.78571L7.08864 8.76843Z" fill="#FF3627"/>
</svg>
