<svg width="24" height="24" viewBox="0 0 24 24" fill="none" xmlns="http://www.w3.org/2000/svg">
<path d="M16.5003 0.333374H7.16699C2.50033 0.333374 0.166992 2.66671 0.166992 7.33337V22.5C0.166992 23.1417 0.691992 23.6667 1.33366 23.6667H16.5003C21.167 23.6667 23.5003 21.3334 23.5003 16.6667V7.33337C23.5003 2.66671 21.167 0.333374 16.5003 0.333374ZM15.917 12.875H12.7087V16.0834C12.7087 16.5617 12.312 16.9584 11.8337 16.9584C11.3553 16.9584 10.9587 16.5617 10.9587 16.0834V12.875H7.75033C7.27199 12.875 6.87533 12.4784 6.87533 12C6.87533 11.5217 7.27199 11.125 7.75033 11.125H10.9587V7.91671C10.9587 7.43837 11.3553 7.04171 11.8337 7.04171C12.312 7.04171 12.7087 7.43837 12.7087 7.91671V11.125H15.917C16.3953 11.125 16.792 11.5217 16.792 12C16.792 12.4784 16.3953 12.875 15.917 12.875Z" fill="#FF4F00"/>
</svg>
