<svg width="12" height="12" viewBox="0 0 12 12" fill="none" xmlns="http://www.w3.org/2000/svg">
<path d="M10.5 11H1.5C1.295 11 1.125 10.83 1.125 10.625C1.125 10.42 1.295 10.25 1.5 10.25H10.5C10.705 10.25 10.875 10.42 10.875 10.625C10.875 10.83 10.705 11 10.5 11Z" fill="url(#paint0_linear_1458_79)"/>
<path d="M9.50979 1.73983C8.53979 0.769834 7.58979 0.744834 6.59479 1.73983L5.98979 2.34483C5.93979 2.39483 5.91979 2.47483 5.93979 2.54483C6.31979 3.86983 7.37979 4.92983 8.70479 5.30983C8.72479 5.31483 8.74479 5.31983 8.76479 5.31983C8.81979 5.31983 8.86979 5.29983 8.90979 5.25983L9.50979 4.65483C10.0048 4.16483 10.2448 3.68983 10.2448 3.20983C10.2498 2.71483 10.0098 2.23483 9.50979 1.73983Z" fill="url(#paint1_linear_1458_79)"/>
<path d="M7.80516 5.7649C7.66016 5.6949 7.52016 5.6249 7.38516 5.5449C7.27516 5.4799 7.17016 5.4099 7.06516 5.3349C6.98016 5.2799 6.88016 5.1999 6.78516 5.1199C6.77516 5.1149 6.74016 5.0849 6.70016 5.0449C6.53516 4.9049 6.35016 4.7249 6.18516 4.5249C6.17016 4.5149 6.14516 4.4799 6.11016 4.4349C6.06016 4.3749 5.97516 4.2749 5.90016 4.1599C5.84016 4.0849 5.77016 3.9749 5.70516 3.8649C5.62516 3.7299 5.55516 3.5949 5.48516 3.4549V3.4549C5.39338 3.25823 5.13525 3.19981 4.98179 3.35327L2.17016 6.1649C2.10516 6.2299 2.04516 6.3549 2.03016 6.4399L1.76016 8.3549C1.71016 8.6949 1.80516 9.0149 2.01516 9.2299C2.19516 9.4049 2.44516 9.4999 2.71516 9.4999C2.77516 9.4999 2.83516 9.4949 2.89516 9.4849L4.81516 9.2149C4.90516 9.1999 5.03016 9.1399 5.09016 9.0749L7.90643 6.25863C8.05682 6.10824 8.00032 5.84947 7.80516 5.7649V5.7649Z" fill="url(#paint2_linear_1458_79)"/>
<defs>
<linearGradient id="paint0_linear_1458_79" x1="1.255" y1="10.2615" x2="1.35726" y2="11.6738" gradientUnits="userSpaceOnUse">
<stop stop-color="#3DCD30"/>
<stop offset="1" stop-color="#0F9403"/>
</linearGradient>
<linearGradient id="paint1_linear_1458_79" x1="5.98963" y1="1.06917" x2="10.0682" y2="5.398" gradientUnits="userSpaceOnUse">
<stop stop-color="#3DCD30"/>
<stop offset="1" stop-color="#0F9403"/>
</linearGradient>
<linearGradient id="paint2_linear_1458_79" x1="1.83351" y1="3.12426" x2="7.95015" y2="9.63066" gradientUnits="userSpaceOnUse">
<stop stop-color="#3DCD30"/>
<stop offset="1" stop-color="#0F9403"/>
</linearGradient>
</defs>
</svg>
