<svg width="74" height="80" viewBox="0 0 74 80" fill="none" xmlns="http://www.w3.org/2000/svg">
<path d="M66.5088 32.055L37.0088 46.3887L7.50879 32.055C7.94629 31.3675 8.57129 30.805 9.34129 30.45L35.0088 17.9712C36.2588 17.3675 37.7375 17.3675 39.0088 17.9712L64.675 30.45C65.425 30.805 66.05 31.3675 66.5088 32.055Z" fill="#E09F44"/>
<path opacity="0.1" d="M66.5088 32.055L37.0088 46.3887V17.5137C37.675 17.5137 38.3838 17.6587 39.0088 17.9712L64.675 30.45C65.425 30.805 66.05 31.3675 66.5088 32.055Z" fill="black"/>
<path d="M37.0148 46.3937V80C36.3211 80 35.6273 79.8662 35.0148 79.5462L9.32982 67.0637C8.56108 66.6951 7.9125 66.1162 7.45921 65.3941C7.00591 64.672 6.76646 63.8363 6.76857 62.9837V34.55C6.76857 33.67 7.03607 32.79 7.51607 32.0425L37.0148 46.3937Z" fill="#FFE691"/>
<path d="M67.2334 34.5513V62.9838C67.2356 63.8362 66.9964 64.6718 66.5433 65.3939C66.0902 66.116 65.4419 66.6949 64.6734 67.0638L39.0146 79.5463C38.3922 79.8505 37.7075 80.0059 37.0146 80V46.3938L66.5146 32.0438C66.977 32.799 67.2254 33.6658 67.2334 34.5513Z" fill="#FFDC6E"/>
<path opacity="0.1" d="M67.2372 34.555V62.9288C67.2372 64.6988 66.2372 66.2825 64.6547 67.0538L38.9897 79.5313C37.7397 80.1363 36.2597 80.1363 34.9897 79.5313L10.7197 67.7413C27.4485 72.0738 44.5935 68.1788 55.6972 57.0538C63.2597 49.4913 66.1122 40.4925 67.2372 34.555Z" fill="black"/>
<path d="M25.5697 56.95L2.78224 45.865C2.30037 45.6306 1.87577 45.2933 1.53837 44.877C1.20096 44.4606 0.958962 43.9754 0.829413 43.4554C0.699863 42.9354 0.685919 42.3934 0.788562 41.8674C0.891205 41.3414 1.10794 40.8444 1.42349 40.4113L7.51974 32.0463L37.0022 46.3875L30.1347 55.8125C29.6282 56.5076 28.8934 57.0025 28.0588 57.2104C27.2243 57.4184 26.3432 57.3262 25.5697 56.95Z" fill="#F0BD59"/>
<path d="M48.4296 56.95L71.2171 45.865C71.6989 45.6306 72.1235 45.2933 72.4609 44.877C72.7983 44.4606 73.0403 43.9754 73.1699 43.4554C73.2994 42.9354 73.3134 42.3934 73.2107 41.8674C73.1081 41.3414 72.8914 40.8444 72.5758 40.4113L66.4796 32.0463L36.9971 46.3875L43.8646 55.8125C44.3711 56.5076 45.1059 57.0025 45.9405 57.2104C46.775 57.4184 47.6561 57.3262 48.4296 56.95Z" fill="#F0BD59"/>
<path d="M36.9993 36.27C47.0149 36.27 55.1343 28.1507 55.1343 18.135C55.1343 8.11932 47.0149 0 36.9993 0C26.9836 0 18.8643 8.11932 18.8643 18.135C18.8643 28.1507 26.9836 36.27 36.9993 36.27Z" fill="#F7524B"/>
<path d="M45.4775 9.65751C45.1565 9.3364 44.7753 9.08168 44.3558 8.90789C43.9362 8.7341 43.4866 8.64465 43.0325 8.64465C42.5784 8.64465 42.1288 8.7341 41.7093 8.90789C41.2898 9.08168 40.9086 9.3364 40.5875 9.65751L37 13.245L33.4125 9.65751C32.7641 9.00906 31.8846 8.64476 30.9675 8.64476C30.0505 8.64476 29.171 9.00906 28.5225 9.65751C27.8741 10.306 27.5098 11.1855 27.5098 12.1025C27.5098 13.0196 27.8741 13.8991 28.5225 14.5475L32.11 18.135L28.5225 21.7225C28.2014 22.0436 27.9467 22.4248 27.773 22.8443C27.5992 23.2638 27.5098 23.7134 27.5098 24.1675C27.5098 24.6216 27.5992 25.0712 27.773 25.4907C27.9467 25.9102 28.2014 26.2914 28.5225 26.6125C28.8436 26.9336 29.2248 27.1883 29.6443 27.3621C30.0638 27.5358 30.5134 27.6253 30.9675 27.6253C31.4216 27.6253 31.8712 27.5358 32.2907 27.3621C32.7103 27.1883 33.0914 26.9336 33.4125 26.6125L37 23.025L40.5875 26.6125C41.236 27.261 42.1155 27.6253 43.0325 27.6253C43.9496 27.6253 44.8291 27.261 45.4775 26.6125C46.126 25.9641 46.4903 25.0846 46.4903 24.1675C46.4903 23.2505 46.126 22.371 45.4775 21.7225L41.89 18.135L45.4775 14.5475C45.7986 14.2264 46.0534 13.8453 46.2271 13.4258C46.4009 13.0062 46.4904 12.5566 46.4904 12.1025C46.4904 11.6484 46.4009 11.1988 46.2271 10.7793C46.0534 10.3597 45.7986 9.97857 45.4775 9.65751Z" fill="#F0F0FC"/>
<path opacity="0.1" d="M55.1387 18.14C55.1387 28.14 47.0049 36.2738 37.0049 36.2738C33.3161 36.2765 29.7147 35.1516 26.6833 33.0496C23.652 30.9477 21.3357 27.9693 20.0449 24.5138C27.0049 29.5538 36.5524 29.6875 43.0049 24.6738C48.7387 20.2213 51.2449 12.3813 49.4049 4.94C51.2179 6.62697 52.6629 8.67015 53.6496 10.9415C54.6362 13.2129 55.1432 15.6636 55.1387 18.14Z" fill="black"/>
</svg>
