<svg width="30" height="30" viewBox="0 0 30 30" fill="none" xmlns="http://www.w3.org/2000/svg">
<path d="M14.9991 2.50049C11.7241 2.50049 9.06165 5.16299 9.06165 8.43799C9.06165 11.6505 11.5741 14.2505 14.8491 14.363C14.9491 14.3505 15.0491 14.3505 15.1241 14.363C15.1491 14.363 15.1616 14.363 15.1866 14.363C15.1991 14.363 15.1991 14.363 15.2116 14.363C18.4116 14.2505 20.9241 11.6505 20.9366 8.43799C20.9366 5.16299 18.2741 2.50049 14.9991 2.50049Z" fill="url(#paint0_linear_4115_2624)"/>
<path d="M21.3508 17.6878C17.8633 15.3628 12.1758 15.3628 8.66331 17.6878C7.07581 18.7503 6.20081 20.1878 6.20081 21.7253C6.20081 23.2628 7.07581 24.6878 8.65081 25.7378C10.4008 26.9128 12.7008 27.5003 15.0008 27.5003C17.3008 27.5003 19.6008 26.9128 21.3508 25.7378C22.9258 24.6753 23.8008 23.2503 23.8008 21.7003C23.7883 20.1628 22.9258 18.7378 21.3508 17.6878Z" fill="url(#paint1_linear_4115_2624)"/>
<defs>
<linearGradient id="paint0_linear_4115_2624" x1="9.21998" y1="2.68252" x2="20.4261" y2="14.6004" gradientUnits="userSpaceOnUse">
<stop stop-color="#068CD5"/>
<stop offset="1" stop-color="#4500D8"/>
</linearGradient>
<linearGradient id="paint1_linear_4115_2624" x1="6.43547" y1="16.1214" x2="16.2183" y2="31.9502" gradientUnits="userSpaceOnUse">
<stop stop-color="#068CD5"/>
<stop offset="1" stop-color="#4500D8"/>
</linearGradient>
</defs>
</svg>
