<svg xmlns="http://www.w3.org/2000/svg" fill="none" viewBox="17.29 7.5 25.43 25">
<g filter="url(#filter0_d_515_220)">
<path d="M41.037 15.0125L32.8495 8.46251C31.2495 7.18751 28.7495 7.17501 27.162 8.45001L18.9745 15.0125C17.7995 15.95 17.087 17.825 17.337 19.3L18.912 28.725C19.2745 30.8375 21.237 32.5 23.3745 32.5H36.6245C38.737 32.5 40.737 30.8 41.0995 28.7125L42.6745 19.2875C42.8995 17.825 42.187 15.95 41.037 15.0125ZM30.937 27.5C30.937 28.0125 30.512 28.4375 29.9995 28.4375C29.487 28.4375 29.062 28.0125 29.062 27.5V23.75C29.062 23.2375 29.487 22.8125 29.9995 22.8125C30.512 22.8125 30.937 23.2375 30.937 23.75V27.5Z" fill="url(#paint0_linear_515_220)"/>
</g>
<defs>
<filter id="filter0_d_515_220" x="0.620441" y="0.833317" width="58.762" height="58.3334" filterUnits="userSpaceOnUse" color-interpolation-filters="sRGB">
<feFlood flood-opacity="0" result="BackgroundImageFix"/>
<feColorMatrix in="SourceAlpha" type="matrix" values="0 0 0 0 0 0 0 0 0 0 0 0 0 0 0 0 0 0 127 0" result="hardAlpha"/>
<feOffset dy="10"/>
<feGaussianBlur stdDeviation="8.33333"/>
<feComposite in2="hardAlpha" operator="out"/>
<feColorMatrix type="matrix" values="0 0 0 0 0.172549 0 0 0 0 0.215686 0 0 0 0 0.839216 0 0 0 0.3 0"/>
<feBlend mode="normal" in2="BackgroundImageFix" result="effect1_dropShadow_515_220"/>
<feBlend mode="normal" in="SourceGraphic" in2="effect1_dropShadow_515_220" result="shape"/>
</filter>
<linearGradient id="paint0_linear_515_220" x1="17.6262" y1="7.88362" x2="41.2167" y2="33.3758" gradientUnits="userSpaceOnUse">
<stop stop-color="#068CD5"/>
<stop offset="1" stop-color="#4500D8"/>
</linearGradient>
</defs>
</svg>