<svg width="20" height="21" viewBox="0 0 20 21" fill="none" xmlns="http://www.w3.org/2000/svg">
<path d="M9.99984 2.16666C5.40817 2.16666 1.6665 5.90832 1.6665 10.5C1.6665 15.0917 5.40817 18.8333 9.99984 18.8333C14.5915 18.8333 18.3332 15.0917 18.3332 10.5C18.3332 5.90832 14.5915 2.16666 9.99984 2.16666ZM9.37484 7.16666C9.37484 6.82499 9.65817 6.54166 9.99984 6.54166C10.3415 6.54166 10.6248 6.82499 10.6248 7.16666V11.3333C10.6248 11.675 10.3415 11.9583 9.99984 11.9583C9.65817 11.9583 9.37484 11.675 9.37484 11.3333V7.16666ZM10.7665 14.15C10.7248 14.2583 10.6665 14.3417 10.5915 14.425C10.5082 14.5 10.4165 14.5583 10.3165 14.6C10.2165 14.6417 10.1082 14.6667 9.99984 14.6667C9.8915 14.6667 9.78317 14.6417 9.68317 14.6C9.58317 14.5583 9.4915 14.5 9.40817 14.425C9.33317 14.3417 9.27484 14.2583 9.23317 14.15C9.1915 14.05 9.1665 13.9417 9.1665 13.8333C9.1665 13.725 9.1915 13.6167 9.23317 13.5167C9.27484 13.4167 9.33317 13.325 9.40817 13.2417C9.4915 13.1667 9.58317 13.1083 9.68317 13.0667C9.88317 12.9833 10.1165 12.9833 10.3165 13.0667C10.4165 13.1083 10.5082 13.1667 10.5915 13.2417C10.6665 13.325 10.7248 13.4167 10.7665 13.5167C10.8082 13.6167 10.8332 13.725 10.8332 13.8333C10.8332 13.9417 10.8082 14.05 10.7665 14.15Z" fill="url(#paint0_linear_3091_1326)"/>
<defs>
<linearGradient id="paint0_linear_3091_1326" x1="1.88873" y1="2.42241" x2="17.6342" y2="19.1503" gradientUnits="userSpaceOnUse">
<stop stop-color="#068CD5"/>
<stop offset="1" stop-color="#4500D8"/>
</linearGradient>
</defs>
</svg>
