<svg width="48" height="48" viewBox="0 0 48 48" fill="none" xmlns="http://www.w3.org/2000/svg">
<path d="M39.5798 8.44014C33.6598 2.54014 24.0598 2.54014 18.1798 8.44014C14.0398 12.5401 12.7998 18.4401 14.3998 23.6401L4.9998 33.0401C4.3398 33.7201 3.8798 35.0601 4.0198 36.0201L4.6198 40.3801C4.8398 41.8201 6.1798 43.1801 7.6198 43.3801L11.9798 43.9801C12.9398 44.1201 14.2798 43.6801 14.9598 42.9801L16.5998 41.3401C16.9998 40.9601 16.9998 40.3201 16.5998 39.9201L12.7198 36.0401C12.1398 35.4601 12.1398 34.5001 12.7198 33.9201C13.2998 33.3401 14.2598 33.3401 14.8398 33.9201L18.7398 37.8201C19.1198 38.2001 19.7598 38.2001 20.1398 37.8201L24.3798 33.6001C29.5598 35.2201 35.4598 33.9601 39.5798 29.8601C45.4798 23.9601 45.4798 14.3401 39.5798 8.44014ZM28.9998 24.0001C26.2398 24.0001 23.9998 21.7601 23.9998 19.0001C23.9998 16.2401 26.2398 14.0001 28.9998 14.0001C31.7598 14.0001 33.9998 16.2401 33.9998 19.0001C33.9998 21.7601 31.7598 24.0001 28.9998 24.0001Z" fill="url(#paint0_linear_1877_550)"/>
<defs>
<linearGradient id="paint0_linear_1877_550" x1="4.5281" y1="4.62881" x2="42.3075" y2="44.7847" gradientUnits="userSpaceOnUse">
<stop stop-color="#068CD5"/>
<stop offset="1" stop-color="#4500D8"/>
</linearGradient>
</defs>
</svg>
