<svg width="48" height="48" viewBox="0 0 48 48" fill="none" xmlns="http://www.w3.org/2000/svg">
<path d="M32.38 4H15.62C8.34 4 4 8.34 4 15.62V32.36C4 39.66 8.34 44 15.62 44H32.36C39.64 44 43.98 39.66 43.98 32.38V15.62C44 8.34 39.66 4 32.38 4ZM16.36 33.54C16.32 33.54 16.26 33.54 16.22 33.54C14.28 33.36 12.46 32.46 11.1 31.02C7.9 27.66 7.9 22.2 11.1 18.84L15.48 14.24C17.04 12.6 19.14 11.68 21.38 11.68C23.62 11.68 25.72 12.58 27.28 14.24C30.48 17.6 30.48 23.06 27.28 26.42L25.1 28.72C24.52 29.32 23.58 29.34 22.98 28.78C22.38 28.2 22.36 27.26 22.92 26.66L25.1 24.36C27.22 22.14 27.22 18.52 25.1 16.32C23.12 14.24 19.64 14.24 17.64 16.32L13.26 20.92C11.14 23.14 11.14 26.76 13.26 28.96C14.12 29.88 15.28 30.44 16.5 30.56C17.32 30.64 17.92 31.38 17.84 32.2C17.78 32.96 17.12 33.54 16.36 33.54ZM36.9 29.18L32.52 33.78C30.96 35.42 28.86 36.34 26.62 36.34C24.38 36.34 22.28 35.44 20.72 33.78C17.52 30.42 17.52 24.96 20.72 21.6L22.9 19.3C23.48 18.7 24.42 18.68 25.02 19.24C25.62 19.82 25.64 20.76 25.08 21.36L22.9 23.66C20.78 25.88 20.78 29.5 22.9 31.7C24.88 33.78 28.36 33.8 30.36 31.7L34.74 27.1C36.86 24.88 36.86 21.26 34.74 19.06C33.88 18.14 32.72 17.58 31.5 17.46C30.68 17.38 30.08 16.64 30.16 15.82C30.24 15 30.96 14.38 31.8 14.48C33.74 14.68 35.56 15.56 36.92 17C40.1 20.34 40.1 25.82 36.9 29.18Z" fill="url(#paint0_linear_1877_9)"/>
<defs>
<linearGradient id="paint0_linear_1877_9" x1="4.53307" y1="4.61381" x2="42.3233" y2="44.7419" gradientUnits="userSpaceOnUse">
<stop stop-color="#068CD5"/>
<stop offset="1" stop-color="#4500D8"/>
</linearGradient>
</defs>
</svg>
