<svg width="29" height="28" viewBox="0 0 29 28" fill="none" xmlns="http://www.w3.org/2000/svg">
<path d="M19.0555 2.33337H9.27882C5.03215 2.33337 2.50049 4.86504 2.50049 9.11171V18.8767C2.50049 23.135 5.03215 25.6667 9.27882 25.6667H19.0438C23.2905 25.6667 25.8222 23.135 25.8222 18.8884V9.11171C25.8338 4.86504 23.3022 2.33337 19.0555 2.33337ZM10.0488 10.4767L13.5488 6.97671C13.6305 6.89504 13.7238 6.83671 13.8288 6.79004C14.0388 6.69671 14.2838 6.69671 14.4938 6.79004C14.5988 6.83671 14.6922 6.89504 14.7738 6.97671L18.2738 10.4767C18.6122 10.815 18.6122 11.375 18.2738 11.7134C18.0988 11.8884 17.8772 11.97 17.6555 11.97C17.4338 11.97 17.2122 11.8884 17.0372 11.7134L15.0305 9.70671V16.9284C15.0305 17.4067 14.6338 17.8034 14.1555 17.8034C13.6772 17.8034 13.2805 17.4067 13.2805 16.9284V9.70671L11.2738 11.7134C10.9355 12.0517 10.3755 12.0517 10.0372 11.7134C9.69882 11.375 9.71049 10.8267 10.0488 10.4767ZM21.4472 20.09C19.1022 20.8717 16.6405 21.2684 14.1672 21.2684C11.6938 21.2684 9.23215 20.8717 6.88716 20.09C6.43216 19.9384 6.18715 19.4367 6.33882 18.9817C6.49049 18.5267 6.99215 18.27 7.44715 18.4334C11.7872 19.88 16.5588 19.88 20.8988 18.4334C21.3538 18.2817 21.8555 18.5267 22.0072 18.9817C22.1472 19.4484 21.9022 19.9384 21.4472 20.09Z" fill="#FF4F00"/>
</svg>
