<svg width="26" height="24" viewBox="0 0 26 24" fill="none" xmlns="http://www.w3.org/2000/svg">
<path d="M23.125 8.525C20.8625 8.525 19.9375 6.925 21.0625 4.9625C21.7125 3.825 21.325 2.375 20.1875 1.725L18.025 0.487497C17.0375 -0.100003 15.7625 0.249997 15.175 1.2375L15.0375 1.475C13.9125 3.4375 12.0625 3.4375 10.925 1.475L10.7875 1.2375C10.225 0.249997 8.95 -0.100003 7.9625 0.487497L5.8 1.725C4.6625 2.375 4.275 3.8375 4.925 4.975C6.0625 6.925 5.1375 8.525 2.875 8.525C1.575 8.525 0.5 9.5875 0.5 10.9V13.1C0.5 14.4 1.5625 15.475 2.875 15.475C5.1375 15.475 6.0625 17.075 4.925 19.0375C4.275 20.175 4.6625 21.625 5.8 22.275L7.9625 23.5125C8.95 24.1 10.225 23.75 10.8125 22.7625L10.95 22.525C12.075 20.5625 13.925 20.5625 15.0625 22.525L15.2 22.7625C15.7875 23.75 17.0625 24.1 18.05 23.5125L20.2125 22.275C21.35 21.625 21.7375 20.1625 21.0875 19.0375C19.95 17.075 20.875 15.475 23.1375 15.475C24.4375 15.475 25.5125 14.4125 25.5125 13.1V10.9C25.5 9.6 24.4375 8.525 23.125 8.525ZM13 16.0625C10.7625 16.0625 8.9375 14.2375 8.9375 12C8.9375 9.7625 10.7625 7.9375 13 7.9375C15.2375 7.9375 17.0625 9.7625 17.0625 12C17.0625 14.2375 15.2375 16.0625 13 16.0625Z" fill="url(#paint0_linear_515_86)"/>
<defs>
<linearGradient id="paint0_linear_515_86" x1="0.8335" y1="0.563476" x2="23.0107" y2="25.5374" gradientUnits="userSpaceOnUse">
<stop stop-color="#068CD5"/>
<stop offset="1" stop-color="#4500D8"/>
</linearGradient>
</defs>
</svg>
