<svg width="48" height="48" viewBox="0 0 48 48" fill="none" xmlns="http://www.w3.org/2000/svg">
<path d="M37.0801 8.24018L26.0801 4.12018C24.9401 3.70018 23.0801 3.70018 21.9401 4.12018L10.9401 8.24018C8.8201 9.04018 7.1001 11.5202 7.1001 13.7802V29.9802C7.1001 31.6002 8.1601 33.7402 9.4601 34.7002L20.4601 42.9202C22.4001 44.3802 25.5801 44.3802 27.5201 42.9202L38.5201 34.7002C39.8201 33.7202 40.8801 31.6002 40.8801 29.9802V13.7802C40.9001 11.5202 39.1801 9.04018 37.0801 8.24018ZM30.9601 19.4402L22.3601 28.0402C22.0601 28.3402 21.6801 28.4802 21.3001 28.4802C20.9201 28.4802 20.5401 28.3402 20.2401 28.0402L17.0401 24.8002C16.4601 24.2202 16.4601 23.2602 17.0401 22.6802C17.6201 22.1002 18.5801 22.1002 19.1601 22.6802L21.3201 24.8402L28.8601 17.3002C29.4401 16.7202 30.4001 16.7202 30.9801 17.3002C31.5601 17.8802 31.5601 18.8602 30.9601 19.4402Z" fill="url(#paint0_linear_1877_531)"/>
<defs>
<linearGradient id="paint0_linear_1877_531" x1="7.5505" y1="4.42221" x2="45.3628" y2="38.1701" gradientUnits="userSpaceOnUse">
<stop stop-color="#068CD5"/>
<stop offset="1" stop-color="#4500D8"/>
</linearGradient>
</defs>
</svg>
