<svg width="31" height="30" viewBox="0 0 31 30" fill="none" xmlns="http://www.w3.org/2000/svg">
<path d="M28.4501 10.3375L28.0875 6.875C27.5625 3.1 25.8501 1.5625 22.1876 1.5625H19.2376H17.3876H13.5876H11.7376H8.73755C5.06255 1.5625 3.36255 3.1 2.82505 6.9125L2.48755 10.35C2.36255 11.6875 2.72505 12.9875 3.51255 14C4.46255 15.2375 5.92505 15.9375 7.55005 15.9375C9.12505 15.9375 10.6376 15.15 11.5876 13.8875C12.4376 15.15 13.8876 15.9375 15.5001 15.9375C17.1126 15.9375 18.5251 15.1875 19.3876 13.9375C20.3501 15.175 21.8375 15.9375 23.3875 15.9375C25.05 15.9375 26.55 15.2 27.4875 13.9C28.2375 12.9 28.5751 11.6375 28.4501 10.3375Z" fill="url(#paint0_linear_2850_2726)"/>
<path d="M14.6875 20.8251C13.1 20.9876 11.9 22.3376 11.9 23.9376V27.3626C11.9 27.7001 12.175 27.9751 12.5125 27.9751H18.475C18.8125 27.9751 19.0875 27.7001 19.0875 27.3626V24.3751C19.1 21.7626 17.5625 20.5251 14.6875 20.8251Z" fill="url(#paint1_linear_2850_2726)"/>
<path d="M27.2125 18.0001V21.7251C27.2125 25.1751 24.4125 27.9751 20.9625 27.9751C20.625 27.9751 20.35 27.7001 20.35 27.3626V24.3751C20.35 22.7751 19.8625 21.5251 18.9125 20.6751C18.075 19.9126 16.9375 19.5376 15.525 19.5376C15.2125 19.5376 14.9 19.5501 14.5625 19.5876C12.3375 19.8126 10.65 21.6876 10.65 23.9376V27.3626C10.65 27.7001 10.375 27.9751 10.0375 27.9751C6.58748 27.9751 3.78748 25.1751 3.78748 21.7251V18.0251C3.78748 17.1501 4.64998 16.5626 5.46248 16.8501C5.79998 16.9626 6.13748 17.0501 6.48748 17.1001C6.63748 17.1251 6.79998 17.1501 6.94998 17.1501C7.14998 17.1751 7.34998 17.1876 7.54998 17.1876C8.99998 17.1876 10.425 16.6501 11.55 15.7251C12.625 16.6501 14.025 17.1876 15.5 17.1876C16.9875 17.1876 18.3625 16.6751 19.4375 15.7501C20.5625 16.6626 21.9625 17.1876 23.3875 17.1876C23.6125 17.1876 23.8375 17.1751 24.05 17.1501C24.2 17.1376 24.3375 17.1251 24.475 17.1001C24.8625 17.0501 25.2125 16.9376 25.5625 16.8251C26.375 16.5501 27.2125 17.1501 27.2125 18.0001Z" fill="url(#paint2_linear_2850_2726)"/>
<defs>
<linearGradient id="paint0_linear_2850_2726" x1="2.81021" y1="1.78309" x2="13.9502" y2="23.199" gradientUnits="userSpaceOnUse">
<stop stop-color="#068CD5"/>
<stop offset="1" stop-color="#4500D8"/>
</linearGradient>
<linearGradient id="paint1_linear_2850_2726" x1="11.9959" y1="20.8914" x2="18.7926" y2="28.1058" gradientUnits="userSpaceOnUse">
<stop stop-color="#068CD5"/>
<stop offset="1" stop-color="#4500D8"/>
</linearGradient>
<linearGradient id="paint2_linear_2850_2726" x1="4.09981" y1="15.9131" x2="13.2877" y2="34.5787" gradientUnits="userSpaceOnUse">
<stop stop-color="#068CD5"/>
<stop offset="1" stop-color="#4500D8"/>
</linearGradient>
</defs>
</svg>
