<svg width="31" height="30" viewBox="0 0 31 30" fill="none" xmlns="http://www.w3.org/2000/svg">
<path d="M26.9625 20.1C26.6625 23.4375 24.25 25.625 20.75 25.625H9.5C6.05 25.625 3.25 22.825 3.25 19.375V10.625C3.25 7.225 5.3 4.85 8.4875 4.45C8.8125 4.4 9.15 4.375 9.5 4.375H20.75C21.075 4.375 21.3875 4.3875 21.6875 4.4375C24.675 4.7875 26.7 6.875 26.9625 9.9C27 10.2625 26.7 10.5625 26.3375 10.5625H24.4C23.2 10.5625 22.0875 11.025 21.2875 11.85C20.3375 12.775 19.8625 14.075 19.975 15.375C20.175 17.65 22.175 19.4375 24.55 19.4375H26.3375C26.7 19.4375 27 19.7375 26.9625 20.1Z" fill="url(#paint0_linear_2983_205)"/>
<path d="M28.25 13.7125V16.2875C28.25 16.975 27.7 17.5375 27 17.5625H24.55C23.2 17.5625 21.9625 16.575 21.85 15.225C21.775 14.4375 22.075 13.7 22.6 13.1875C23.0625 12.7125 23.7 12.4375 24.4 12.4375H27C27.7 12.4625 28.25 13.025 28.25 13.7125Z" fill="url(#paint1_linear_2983_205)"/>
<defs>
<linearGradient id="paint0_linear_2983_205" x1="3.56621" y1="4.70109" x2="23.3903" y2="28.2058" gradientUnits="userSpaceOnUse">
<stop stop-color="#068CD5"/>
<stop offset="1" stop-color="#4500D8"/>
</linearGradient>
<linearGradient id="paint1_linear_2983_205" x1="21.924" y1="12.5161" x2="26.5848" y2="18.7105" gradientUnits="userSpaceOnUse">
<stop stop-color="#068CD5"/>
<stop offset="1" stop-color="#4500D8"/>
</linearGradient>
</defs>
</svg>
