<svg width="29" height="28" viewBox="0 0 29 28" fill="none" xmlns="http://www.w3.org/2000/svg">
<path d="M23.7983 2.04163H20.3683C18.8867 2.04163 18 2.92829 18 4.40996V7.83996C18 9.32163 18.8867 10.2083 20.3683 10.2083H23.7983C25.28 10.2083 26.1667 9.32163 26.1667 7.83996V4.40996C26.1667 2.92829 25.28 2.04163 23.7983 2.04163ZM24.055 5.90329C23.915 6.04329 23.7283 6.11329 23.5417 6.11329C23.355 6.11329 23.1683 6.04329 23.0283 5.90329L22.8183 5.69329V8.30663C22.8183 8.71496 22.4917 9.04163 22.0833 9.04163C21.675 9.04163 21.3483 8.71496 21.3483 8.30663V5.69329L21.1383 5.90329C20.8583 6.18329 20.3917 6.18329 20.1117 5.90329C19.8317 5.62329 19.8317 5.15663 20.1117 4.87663L21.57 3.41829C21.6283 3.35996 21.71 3.31329 21.7917 3.27829C21.815 3.26663 21.8383 3.26663 21.8617 3.25496C21.92 3.23163 21.9783 3.21996 22.0483 3.21996C22.0717 3.21996 22.095 3.21996 22.1183 3.21996C22.2 3.21996 22.27 3.23163 22.3517 3.26663C22.3633 3.26663 22.3633 3.26663 22.375 3.26663C22.4567 3.30163 22.5267 3.34829 22.585 3.40663C22.5967 3.41829 22.5967 3.41829 22.6083 3.41829L24.0667 4.87663C24.3467 5.15663 24.3467 5.62329 24.055 5.90329Z" fill="#FF4F00"/>
<path d="M2.8335 13.37V19.2034C2.8335 21.875 4.99183 24.0334 7.6635 24.0334H21.3252C23.9968 24.0334 26.1668 21.8634 26.1668 19.1917V13.37C26.1668 12.5884 25.5368 11.9584 24.7552 11.9584H4.24516C3.4635 11.9584 2.8335 12.5884 2.8335 13.37ZM9.8335 20.125H7.50016C7.02183 20.125 6.62516 19.7284 6.62516 19.25C6.62516 18.7717 7.02183 18.375 7.50016 18.375H9.8335C10.3118 18.375 10.7085 18.7717 10.7085 19.25C10.7085 19.7284 10.3118 20.125 9.8335 20.125ZM17.4168 20.125H12.7502C12.2718 20.125 11.8752 19.7284 11.8752 19.25C11.8752 18.7717 12.2718 18.375 12.7502 18.375H17.4168C17.8952 18.375 18.2918 18.7717 18.2918 19.25C18.2918 19.7284 17.8952 20.125 17.4168 20.125Z" fill="#FF4F00"/>
<path d="M16.2502 5.37834V8.79667C16.2502 9.57834 15.6202 10.2083 14.8385 10.2083H4.24516C3.45183 10.2083 2.8335 9.55501 2.8335 8.77334C2.84516 7.45501 3.37016 6.25334 4.24516 5.37834C5.12016 4.50334 6.3335 3.96667 7.6635 3.96667H14.8385C15.6202 3.96667 16.2502 4.59667 16.2502 5.37834Z" fill="#FF4F00"/>
</svg>
